<svg width="1200" height="630" viewBox="0 0 1200 630" xmlns="http://www.w3.org/2000/svg">
  <!-- Background -->
  <rect width="1200" height="630" fill="#ffffff"/>
  
  <!-- QR Code placeholder (simplified pattern) -->
  <g transform="translate(100, 115)">
    <!-- QR code pattern -->
    <rect width="400" height="400" fill="#ffffff" stroke="#e5e7eb" stroke-width="2"/>
    <rect x="20" y="20" width="80" height="80" fill="#b31b1b" rx="12"/>
    <rect x="300" y="20" width="80" height="80" fill="#b31b1b" rx="12"/>
    <rect x="20" y="300" width="80" height="80" fill="#b31b1b" rx="12"/>
    
    <!-- Center label -->
    <rect x="150" y="150" width="100" height="100" fill="white" rx="15" stroke="#e5e7eb" stroke-width="1"/>
    <text x="200" y="185" text-anchor="middle" font-family="system-ui, -apple-system, sans-serif" font-size="16" font-weight="500" fill="#b31b1b">arXiv:</text>
    <text x="200" y="210" text-anchor="middle" font-family="system-ui, -apple-system, sans-serif" font-size="12" font-weight="400" fill="#b31b1b">2501.01234</text>
    
    <!-- Dots pattern -->
    <circle cx="160" cy="60" r="4" fill="#b31b1b"/>
    <circle cx="180" cy="60" r="4" fill="#b31b1b"/>
    <circle cx="200" cy="60" r="4" fill="#b31b1b"/>
    <circle cx="220" cy="60" r="4" fill="#b31b1b"/>
    <circle cx="240" cy="60" r="4" fill="#b31b1b"/>
    
    <circle cx="160" cy="340" r="4" fill="#b31b1b"/>
    <circle cx="180" cy="340" r="4" fill="#b31b1b"/>
    <circle cx="200" cy="340" r="4" fill="#b31b1b"/>
    <circle cx="220" cy="340" r="4" fill="#b31b1b"/>
    <circle cx="240" cy="340" r="4" fill="#b31b1b"/>
    
    <circle cx="60" cy="160" r="4" fill="#b31b1b"/>
    <circle cx="60" cy="180" r="4" fill="#b31b1b"/>
    <circle cx="60" cy="200" r="4" fill="#b31b1b"/>
    <circle cx="60" cy="220" r="4" fill="#b31b1b"/>
    <circle cx="60" cy="240" r="4" fill="#b31b1b"/>
    
    <circle cx="340" cy="160" r="4" fill="#b31b1b"/>
    <circle cx="340" cy="180" r="4" fill="#b31b1b"/>
    <circle cx="340" cy="200" r="4" fill="#b31b1b"/>
    <circle cx="340" cy="220" r="4" fill="#b31b1b"/>
    <circle cx="340" cy="240" r="4" fill="#b31b1b"/>
  </g>
  
  <!-- Text content -->
  <g transform="translate(550, 200)">
    <text x="0" y="0" font-family="system-ui, -apple-system, sans-serif" font-size="72" font-weight="300" fill="#b31b1b">aqrxiv</text>
    <text x="0" y="60" font-family="system-ui, -apple-system, sans-serif" font-size="32" font-weight="400" fill="#374151">arXiv QR Code Generator</text>
    <text x="0" y="120" font-family="system-ui, -apple-system, sans-serif" font-size="24" font-weight="400" fill="#6b7280">Generate stylish QR codes</text>
    <text x="0" y="150" font-family="system-ui, -apple-system, sans-serif" font-size="24" font-weight="400" fill="#6b7280">for arXiv papers with custom labels</text>
    <text x="0" y="180" font-family="system-ui, -apple-system, sans-serif" font-size="24" font-weight="400" fill="#6b7280">and high-quality output</text>
  </g>
  
  <!-- GitHub icon -->
  <g transform="translate(1100, 50)">
    <circle cx="25" cy="25" r="25" fill="#f3f4f6"/>
    <path d="M25 8c-9.374 0-17 7.626-17 17 0 7.512 4.884 13.891 11.652 16.145.852.156 1.163-.37 1.163-.82v-2.856c-4.731 1.029-5.73-2.282-5.73-2.282-.774-1.966-1.891-2.491-1.891-2.491-1.545-1.057.117-1.035.117-1.035 1.708.12 2.607 1.754 2.607 1.754 1.518 2.601 3.981 1.849 4.952 1.414.152-1.1.594-1.849 1.08-2.273-3.784-.43-7.76-1.892-7.76-8.42 0-1.861.664-3.381 1.754-4.57-.176-.431-.76-2.162.167-4.504 0 0 1.43-.457 4.68 1.748 1.359-.378 2.817-.567 4.265-.574 1.448.007 2.907.196 4.266.574 3.249-2.205 4.677-1.748 4.677-1.748.928 2.342.344 4.073.168 4.504 1.092 1.189 1.753 2.709 1.753 4.57 0 6.543-3.984 7.985-7.776 8.407.611.527 1.156 1.565 1.156 3.155v4.676c0 .455.307.983 1.171.817 6.759-2.259 11.635-8.633 11.635-16.142 0-9.374-7.626-17-17-17z" fill="#374151"/>
  </g>
</svg>